<svg width="80" height="56" viewBox="0 0 80 56" fill="none" xmlns="http://www.w3.org/2000/svg">
<path d="M22.5501 20.1976C22.5501 21.1826 22.6501 21.9826 22.8401 22.5726C23.0501 23.1576 23.3201 23.7976 23.6901 24.4926C23.8081 24.6763 23.8722 24.8893 23.8751 25.1076C23.8751 25.3726 23.7151 25.6426 23.3751 25.9076L21.6951 27.0276C21.4934 27.1732 21.2535 27.2567 21.0051 27.2676C20.7351 27.2676 20.4701 27.1376 20.2051 26.8976C19.8457 26.5109 19.5242 26.0907 19.2451 25.6426C18.9476 25.1297 18.6724 24.6042 18.4201 24.0676C16.3451 26.5226 13.7401 27.7526 10.6001 27.7526C8.36506 27.7526 6.58006 27.1076 5.28006 25.8276C3.97506 24.5476 3.31006 22.8376 3.31006 20.7026C3.31006 18.4326 4.11006 16.5926 5.73006 15.2026C7.35506 13.8126 9.51006 13.1226 12.2501 13.1226C13.1501 13.1226 14.0851 13.2026 15.0701 13.3326C16.0551 13.4676 17.0701 13.6826 18.1301 13.9226V11.9726C18.1301 9.94263 17.7051 8.52764 16.8801 7.70264C16.0301 6.87264 14.5901 6.47263 12.5401 6.47263C11.6101 6.47263 10.6551 6.58264 9.67006 6.82264C8.69142 7.05555 7.73065 7.35798 6.79506 7.72763C6.493 7.8644 6.18234 7.98131 5.86506 8.07764C5.72757 8.12306 5.58465 8.14996 5.44006 8.15763C5.06506 8.15763 4.88006 7.88763 4.88006 7.32763V6.01763C4.88006 5.59263 4.93006 5.26764 5.06506 5.08764C5.26654 4.84231 5.52367 4.64861 5.81506 4.52264C6.74006 4.04264 7.86006 3.64263 9.16506 3.32263C10.4651 2.97263 11.8501 2.81764 13.3151 2.81764C16.4801 2.81764 18.7951 3.53764 20.2851 4.97764C21.7501 6.41764 22.4951 8.60763 22.4951 11.5476V20.1976H22.5451H22.5501ZM11.7451 24.2526C12.6201 24.2526 13.5251 24.0926 14.4851 23.7726C15.4401 23.4526 16.2951 22.8626 17.0101 22.0626C17.4388 21.5714 17.7485 20.988 17.9151 20.3576C18.0751 19.7126 18.1851 18.9426 18.1851 18.0326V16.9126C17.3775 16.7168 16.5595 16.5666 15.7351 16.4626C14.906 16.3554 14.071 16.3003 13.2351 16.2976C11.4501 16.2976 10.1451 16.6476 9.27006 17.3676C8.39006 18.0876 7.97006 19.1026 7.97006 20.4376C7.97006 21.6876 8.28506 22.6226 8.95006 23.2676C9.59006 23.9326 10.5201 24.2526 11.7451 24.2526ZM33.1101 27.1376C32.6301 27.1376 32.3101 27.0576 32.1001 26.8676C31.8851 26.7076 31.7001 26.3376 31.5401 25.8276L25.2901 5.19263C25.1668 4.84679 25.0846 4.48766 25.0451 4.12264C25.0451 3.69764 25.2601 3.45764 25.6851 3.45764H28.2951C28.7951 3.45764 29.1451 3.53764 29.3301 3.72264C29.5451 3.88264 29.7051 4.25763 29.8651 4.76263L34.3351 22.4376L38.4851 4.76263C38.6151 4.23263 38.7751 3.88264 38.9851 3.72264C39.3059 3.52612 39.6796 3.43357 40.0551 3.45764H42.1801C42.6901 3.45764 43.0301 3.53764 43.2451 3.72264C43.4601 3.88264 43.6451 4.25763 43.7501 4.76263L47.9551 22.6526L52.5551 4.76263C52.6404 4.37551 52.8247 4.01715 53.0901 3.72264C53.3999 3.52629 53.7641 3.43349 54.1301 3.45764H56.6051C57.0301 3.45764 57.2701 3.67264 57.2701 4.12264C57.2701 4.25764 57.2401 4.39264 57.2201 4.55264C57.1771 4.77962 57.1135 5.0022 57.0301 5.21764L50.6151 25.8526C50.4551 26.3876 50.2701 26.7376 50.0601 26.8976C49.7581 27.0908 49.4029 27.1835 49.0451 27.1626H46.7601C46.2551 27.1626 45.9101 27.0826 45.6951 26.8976C45.4801 26.7076 45.2951 26.3626 45.1901 25.8276L41.0651 8.61263L36.9651 25.8076C36.8351 26.3426 36.6751 26.6876 36.4651 26.8726C36.2501 27.0626 35.8751 27.1426 35.4001 27.1426H33.1101V27.1376ZM67.3001 27.8576C65.9193 27.8595 64.5431 27.6984 63.2001 27.3776C61.8701 27.0576 60.8351 26.7076 60.1401 26.3076C59.7151 26.0676 59.4251 25.8026 59.3151 25.5576C59.2134 25.3224 59.1607 25.0689 59.1601 24.8126V23.4526C59.1601 22.8926 59.3701 22.6226 59.7701 22.6226C59.9334 22.623 60.0955 22.65 60.2501 22.7026C60.4101 22.7576 60.6501 22.8626 60.9151 22.9726C61.8151 23.3726 62.8051 23.6926 63.8401 23.9076C64.9051 24.1176 65.9401 24.2276 67.0051 24.2276C68.6851 24.2276 69.9851 23.9326 70.8901 23.3476C71.3248 23.0845 71.682 22.7107 71.9253 22.2645C72.1686 21.8184 72.2893 21.3156 72.2751 20.8076C72.284 20.4646 72.225 20.1233 72.1015 19.8032C71.9779 19.4831 71.7922 19.1906 71.5551 18.9426C71.0801 18.4326 70.1751 17.9776 68.8701 17.5526L65.0101 16.3526C63.0701 15.7376 61.6301 14.8276 60.7551 13.6276C59.8985 12.5188 59.4311 11.1587 59.4251 9.75764C59.4251 8.63764 59.6651 7.64764 60.1401 6.79264C60.6201 5.94264 61.2601 5.19263 62.0601 4.60263C62.8601 3.99263 63.7601 3.53763 64.8251 3.21763C65.8901 2.89763 67.0051 2.76263 68.1751 2.76263C68.7651 2.76263 69.3751 2.78764 69.9601 2.86764C70.5701 2.94764 71.1301 3.05764 71.6901 3.16764C72.2201 3.29764 72.7301 3.42764 73.2051 3.59264C73.6851 3.75264 74.0551 3.91263 74.3251 4.07263C74.639 4.23029 74.9127 4.45778 75.1251 4.73763C75.2962 4.99796 75.3786 5.30664 75.3601 5.61763V6.87263C75.3601 7.43263 75.1501 7.72763 74.7501 7.72763C74.3959 7.68719 74.0529 7.57853 73.7401 7.40764C72.1322 6.69476 70.3886 6.3399 68.6301 6.36764C67.1151 6.36764 65.9151 6.60764 65.0901 7.11764C64.2651 7.61764 63.8401 8.39764 63.8401 9.49264C63.8401 10.2376 64.1051 10.8776 64.6401 11.3876C65.1701 11.8926 66.1551 12.3976 67.5651 12.8526L71.3451 14.0526C73.2601 14.6676 74.6451 15.5226 75.4701 16.6176C76.2951 17.7126 76.6901 18.9676 76.6901 20.3576C76.6901 21.5076 76.4551 22.5426 76.0001 23.4526C75.529 24.3658 74.8674 25.1671 74.0601 25.8026C73.2351 26.4676 72.2501 26.9526 71.1051 27.2976C69.9051 27.6726 68.6551 27.8576 67.3001 27.8576Z" fill="#252F3E"/>
<path fill-rule="evenodd" clip-rule="evenodd" d="M72.325 40.8276C63.575 47.3126 50.855 50.7576 39.92 50.7576C24.595 50.7576 10.785 45.0726 0.355018 35.6226C-0.469982 34.8726 0.275017 33.8576 1.25502 34.4476C12.54 41.0126 26.455 44.9926 40.855 44.9926C50.56 44.9926 61.23 42.9626 71.05 38.7976C72.515 38.1326 73.765 39.7576 72.325 40.8276Z" fill="#FF9900"/>
<path fill-rule="evenodd" clip-rule="evenodd" d="M75.97 36.6626C74.855 35.2276 68.575 35.9726 65.73 36.3176C64.88 36.4276 64.745 35.6776 65.515 35.1176C70.515 31.5926 78.74 32.6076 79.695 33.7826C80.655 34.9826 79.43 43.2326 74.745 47.1826C74.03 47.7976 73.34 47.4826 73.655 46.6826C74.72 44.0326 77.09 38.0826 75.97 36.6676V36.6626Z" fill="#FF9900"/>
</svg>
