<svg width="80" height="81" viewBox="0 0 80 81" fill="none" xmlns="http://www.w3.org/2000/svg">
<rect width="80" height="80.0253" rx="10" fill="white"/>
<path d="M40.0003 1C17.9117 1 0 18.9083 0 41.0003C0 58.6735 11.4613 73.6674 27.3547 78.9565C29.3538 79.3268 30.0877 78.0888 30.0877 77.0323C30.0877 76.0785 30.0506 72.9275 30.0334 69.5851C18.9052 72.0048 16.5571 64.8655 16.5571 64.8655C14.7375 60.2421 12.1158 59.0127 12.1158 59.0127C8.48652 56.53 12.3893 56.581 12.3893 56.581C16.406 56.8632 18.5211 60.7031 18.5211 60.7031C22.0887 66.8183 27.8786 65.0503 30.1612 64.0283C30.5202 61.443 31.5569 59.6784 32.7008 58.6795C23.8162 57.668 14.4765 54.2382 14.4765 38.9112C14.4765 34.544 16.0391 30.9757 18.5979 28.1745C18.1826 27.167 16.8134 23.0986 18.9854 17.5889C18.9854 17.5889 22.3444 16.5138 29.9883 21.6891C33.1791 20.8028 36.601 20.3583 40.0003 20.3431C43.3997 20.3583 46.8243 20.8028 50.0209 21.6891C57.6556 16.5138 61.01 17.5889 61.01 17.5889C63.1873 23.0986 61.8174 27.167 61.4021 28.1745C63.9669 30.9757 65.5189 34.544 65.5189 38.9112C65.5189 54.2746 56.1613 57.6574 47.2542 58.6477C48.6889 59.889 49.9673 62.3233 49.9673 66.0552C49.9673 71.4073 49.9209 75.7148 49.9209 77.0323C49.9209 78.0968 50.6409 79.344 52.6685 78.9512C68.5533 73.6561 80 58.6676 80 41.0003C80 18.9083 62.091 1 40.0003 1ZM14.9814 57.9813C14.8933 58.18 14.5807 58.2397 14.2959 58.1032C14.0057 57.9727 13.8428 57.7018 13.9368 57.5024C14.0229 57.2977 14.3363 57.2408 14.6257 57.3779C14.9165 57.5084 15.0821 57.7819 14.9814 57.9813ZM16.949 59.737C16.7582 59.9138 16.3853 59.8317 16.1323 59.5522C15.8706 59.2733 15.8216 58.9004 16.015 58.7209C16.2118 58.544 16.5734 58.6268 16.8357 58.9057C17.0974 59.1878 17.1484 59.5581 16.949 59.737ZM18.2988 61.9832C18.0537 62.1535 17.653 61.9938 17.4053 61.6381C17.1602 61.2824 17.1602 60.8559 17.4106 60.685C17.659 60.5141 18.0537 60.6677 18.3048 61.0208C18.5492 61.3825 18.5492 61.809 18.2988 61.9832ZM20.5817 64.5847C20.3624 64.8265 19.8954 64.7616 19.5536 64.4317C19.2039 64.1092 19.1065 63.6514 19.3264 63.4097C19.5483 63.1672 20.018 63.2355 20.3624 63.5627C20.7095 63.8846 20.8155 64.3456 20.5817 64.5847ZM23.532 65.463C23.4353 65.7763 22.9856 65.9187 22.5325 65.7856C22.0801 65.6485 21.784 65.2815 21.8754 64.9649C21.9695 64.6496 22.4212 64.5012 22.8776 64.6436C23.3293 64.7801 23.6261 65.1444 23.532 65.463ZM26.8897 65.8355C26.9009 66.1654 26.5167 66.439 26.0412 66.4449C25.5629 66.4555 25.1761 66.1886 25.1708 65.864C25.1708 65.5308 25.5463 65.2599 26.0246 65.2519C26.5002 65.2427 26.8897 65.5076 26.8897 65.8355ZM30.1882 65.7091C30.2451 66.031 29.9146 66.3615 29.4423 66.4496C28.978 66.5344 28.5481 66.3357 28.4891 66.0164C28.4315 65.6866 28.768 65.356 29.2317 65.2706C29.7046 65.1884 30.1279 65.3819 30.1882 65.7091Z" fill="#161614"/>
</svg>
