<svg width="80" height="81" viewBox="0 0 80 81" fill="none" xmlns="http://www.w3.org/2000/svg">
<g clip-path="url(#clip0_39_37)">
<path fill-rule="evenodd" clip-rule="evenodd" d="M0 0.0126343H80V80.0126H0V0.0126343Z" fill="white"/>
<path fill-rule="evenodd" clip-rule="evenodd" d="M33.357 42.2335C33.357 42.2335 31.4462 43.3453 34.7183 43.7209C38.6835 44.1737 40.7089 44.1086 45.0771 43.2823C45.0771 43.2823 46.2271 44.0023 47.8325 44.6253C38.0373 48.8225 25.6644 44.3825 33.357 42.2335ZM32.1596 36.7563C32.1596 36.7563 30.016 38.343 33.291 38.6816C37.5268 39.1191 40.8703 39.1548 46.6596 38.0408C46.6596 38.0408 47.459 38.8522 48.7169 39.2955C36.8756 42.7589 23.6876 39.5681 32.1596 36.7563Z" fill="#3174B9"/>
<path fill-rule="evenodd" clip-rule="evenodd" d="M42.249 27.4641C44.6637 30.2436 41.6161 32.7434 41.6161 32.7434C41.6161 32.7434 47.7445 29.5804 44.9297 25.6181C42.3017 21.9247 40.2859 20.0899 51.1976 13.7623C51.1976 13.7623 34.0692 18.0383 42.249 27.4641Z" fill="#CA3132"/>
<path fill-rule="evenodd" clip-rule="evenodd" d="M55.2035 46.285C55.2035 46.285 56.6179 47.4512 53.6454 48.3531C47.9931 50.0651 30.1156 50.5814 25.1497 48.4212C23.3659 47.6442 26.7127 46.5672 27.7657 46.3398C28.8638 46.1024 29.4905 46.1455 29.4905 46.1455C27.5054 44.7477 16.6594 48.891 23.9822 50.0796C43.9503 53.3173 60.3822 48.622 55.2035 46.285ZM34.2763 31.0807C34.2763 31.0807 25.1838 33.2409 31.0569 34.0262C33.5375 34.3578 38.4789 34.2814 43.0853 33.895C46.8489 33.5792 50.6265 32.9035 50.6265 32.9035C50.6265 32.9035 49.3005 33.4725 48.3397 34.1274C39.1048 36.5566 21.2675 35.4252 26.4031 32.9421C30.7452 30.8416 34.2763 31.0807 34.2763 31.0807ZM50.5887 40.1977C59.9755 35.3211 55.6355 30.6337 52.6054 31.2654C51.8645 31.4202 51.5321 31.5538 51.5321 31.5538C51.5321 31.5538 51.8085 31.1214 52.3339 30.9354C58.3274 28.8291 62.9359 37.1493 50.4015 40.4442C50.4011 40.4442 50.5456 40.3139 50.5887 40.1977Z" fill="#3174B9"/>
<path fill-rule="evenodd" clip-rule="evenodd" d="M44.9298 3.54205C44.9298 3.54205 50.1272 8.74282 39.9988 16.7376C31.8762 23.1532 38.1469 26.81 39.9963 30.9898C35.2541 26.7121 31.7757 22.9456 34.109 19.4411C37.5347 14.2968 47.0269 11.802 44.9298 3.54205Z" fill="#CA3132"/>
<path fill-rule="evenodd" clip-rule="evenodd" d="M35.1997 53.4165C44.2084 53.9926 58.0452 53.0965 58.3735 48.8329C58.3735 48.8329 57.7435 50.449 50.9274 51.7311C43.2373 53.1787 33.7509 53.0102 28.1263 52.0818C28.1263 52.0818 29.2789 53.0355 35.1997 53.4165Z" fill="#3174B9"/>
<path fill-rule="evenodd" clip-rule="evenodd" d="M57.9572 61.0623H57.6833V60.9087H58.4225V61.0623H58.1486V61.8292H57.9572V61.0623ZM59.4322 61.1004H59.4289L59.1567 61.8288H59.0317L58.7611 61.1004H58.7578V61.8288H58.576V60.9083H58.8429L59.0936 61.5595L59.3443 60.9083H59.6086V61.8288H59.4327L59.4322 61.1004ZM33.7235 69.7053C32.8739 70.4416 31.9758 70.8558 31.1694 70.8558C30.0206 70.8558 29.3972 70.1656 29.3972 69.0612C29.3972 67.8655 30.0645 66.9906 32.7357 66.9906H33.7231L33.7235 69.7053ZM36.0684 72.3507V64.1613C36.0684 62.0683 34.8748 60.6871 31.9974 60.6871C30.3185 60.6871 28.8468 61.1017 27.6503 61.63L27.9948 63.0806C28.9373 62.7344 30.1559 62.4136 31.352 62.4136C33.0096 62.4136 33.7231 63.0806 33.7231 64.4614V65.4969H32.8947C28.868 65.4969 27.051 67.0591 27.051 69.4077C27.051 71.4314 28.2484 72.5819 30.5024 72.5819C31.9513 72.5819 33.0337 71.9838 34.0443 71.1085L34.2282 72.3507H36.0684ZM43.8947 72.3507H40.9708L37.4501 60.8954H40.0042L42.1893 67.9348L42.6757 70.0498C43.7781 66.9906 44.5604 63.8849 44.9518 60.8954H47.4353C46.7704 64.6672 45.5727 68.8084 43.8947 72.3507ZM55.1159 69.7053C54.2638 70.4416 53.3657 70.8558 52.561 70.8558C51.4122 70.8558 50.7896 70.1656 50.7896 69.0612C50.7896 67.8655 51.4574 66.9906 54.1269 66.9906H55.1159V69.7053ZM57.4617 72.3507V64.1613C57.4617 62.0683 56.2643 60.6871 53.3898 60.6871C51.7093 60.6871 50.238 61.1017 49.0415 61.63L49.386 63.0806C50.3285 62.7344 51.5495 62.4136 52.7461 62.4136C54.4012 62.4136 55.1155 63.0806 55.1155 64.4614V65.4969H54.2871C50.26 65.4969 48.4443 67.0591 48.4443 69.4077C48.4443 71.4314 49.6391 72.5819 51.8936 72.5819C53.3437 72.5819 54.4245 71.9838 55.4376 71.1085L55.6222 72.3507H57.4617ZM24.4799 74.2972C23.8117 75.2738 22.7309 76.047 21.5493 76.4832L20.3914 75.1194C21.2916 74.6575 22.0627 73.9117 22.4217 73.2177C22.7309 72.5993 22.86 71.8041 22.86 69.9008V56.821H25.3523V69.7203C25.3523 72.2661 25.1489 73.2949 24.4799 74.2972Z" fill="#CA3132"/>
</g>
<defs>
<clipPath id="clip0_39_37">
<rect width="80" height="80" fill="white" transform="translate(0 0.0126343)"/>
</clipPath>
</defs>
</svg>
